<?xml version="1.0" encoding="utf-8" standalone="no"?>
<!DOCTYPE svg PUBLIC "-//W3C//DTD SVG 1.1//EN"
  "http://www.w3.org/Graphics/SVG/1.1/DTD/svg11.dtd">
<svg xmlns:xlink="http://www.w3.org/1999/xlink" width="712.779687pt" height="367.59625pt" viewBox="0 0 712.779687 367.59625" xmlns="http://www.w3.org/2000/svg" version="1.1">
 <metadata>
  <rdf:RDF xmlns:dc="http://purl.org/dc/elements/1.1/" xmlns:cc="http://creativecommons.org/ns#" xmlns:rdf="http://www.w3.org/1999/02/22-rdf-syntax-ns#">
   <cc:Work>
    <dc:type rdf:resource="http://purl.org/dc/dcmitype/StillImage"/>
    <dc:date>2023-04-13T22:53:56.050512</dc:date>
    <dc:format>image/svg+xml</dc:format>
    <dc:creator>
     <cc:Agent>
      <dc:title>Matplotlib v3.6.2, https://matplotlib.org/</dc:title>
     </cc:Agent>
    </dc:creator>
   </cc:Work>
  </rdf:RDF>
 </metadata>
 <defs>
  <style type="text/css">*{stroke-linejoin: round; stroke-linecap: butt}</style>
 </defs>
 <g id="figure_1">
  <g id="patch_1">
   <path d="M -0 367.59625 
L 712.779687 367.59625 
L 712.779687 0 
L -0 0 
z
" style="fill: #ffffff"/>
  </g>
  <g id="axes_1">
   <g id="patch_2">
    <path d="M 35.304688 343.718125 
L 705.579688 343.718125 
L 705.579688 22.318125 
L 35.304688 22.318125 
z
" style="fill: #ffffff"/>
   </g>
   <g id="patch_3">
    <path d="M 65.771733 343.718125 
L 65.771733 22.318125 
L 74.449056 22.318125 
L 74.449056 343.718125 
z
" clip-path="url(#pcd078c9ff3)" style="fill: #4286f4; opacity: 0.2"/>
   </g>
   <g id="patch_4">
    <path d="M 74.449056 343.718125 
L 74.449056 22.318125 
L 84.090526 22.318125 
L 84.090526 343.718125 
z
" clip-path="url(#pcd078c9ff3)" style="fill: #f44174; opacity: 0.2"/>
   </g>
   <g id="patch_5">
    <path d="M 84.090526 343.718125 
L 84.090526 22.318125 
L 228.712577 22.318125 
L 228.712577 343.718125 
z
" clip-path="url(#pcd078c9ff3)" style="fill: #4286f4; opacity: 0.2"/>
   </g>
   <g id="patch_6">
    <path d="M 228.712577 343.718125 
L 228.712577 22.318125 
L 479.390799 22.318125 
L 479.390799 343.718125 
z
" clip-path="url(#pcd078c9ff3)" style="fill: #f44174; opacity: 0.2"/>
   </g>
   <g id="patch_7">
    <path d="M 479.390799 343.718125 
L 479.390799 22.318125 
L 489.032269 22.318125 
L 489.032269 343.718125 
z
" clip-path="url(#pcd078c9ff3)" style="fill: #4286f4; opacity: 0.2"/>
   </g>
   <g id="patch_8">
    <path d="M 489.032269 343.718125 
L 489.032269 22.318125 
L 674.148495 22.318125 
L 674.148495 343.718125 
z
" clip-path="url(#pcd078c9ff3)" style="fill: #f44174; opacity: 0.2"/>
   </g>
   <g id="matplotlib.axis_1">
    <g id="xtick_1">
     <g id="line2d_1">
      <defs>
       <path id="m6a83042de6" d="M 0 0 
L 0 3.5 
" style="stroke: #000000; stroke-width: 0.8"/>
      </defs>
      <g>
       <use xlink:href="#m6a83042de6" x="65.771733" y="343.718125" style="stroke: #000000; stroke-width: 0.8"/>
      </g>
     </g>
     <g id="text_1">
      <!-- 1700 -->
      <g transform="translate(53.046733 358.316562) scale(0.1 -0.1)">
       <defs>
        <path id="DejaVuSans-31" d="M 794 531 
L 1825 531 
L 1825 4091 
L 703 3866 
L 703 4441 
L 1819 4666 
L 2450 4666 
L 2450 531 
L 3481 531 
L 3481 0 
L 794 0 
L 794 531 
z
" transform="scale(0.015625)"/>
        <path id="DejaVuSans-37" d="M 525 4666 
L 3525 4666 
L 3525 4397 
L 1831 0 
L 1172 0 
L 2766 4134 
L 525 4134 
L 525 4666 
z
" transform="scale(0.015625)"/>
        <path id="DejaVuSans-30" d="M 2034 4250 
Q 1547 4250 1301 3770 
Q 1056 3291 1056 2328 
Q 1056 1369 1301 889 
Q 1547 409 2034 409 
Q 2525 409 2770 889 
Q 3016 1369 3016 2328 
Q 3016 3291 2770 3770 
Q 2525 4250 2034 4250 
z
M 2034 4750 
Q 2819 4750 3233 4129 
Q 3647 3509 3647 2328 
Q 3647 1150 3233 529 
Q 2819 -91 2034 -91 
Q 1250 -91 836 529 
Q 422 1150 422 2328 
Q 422 3509 836 4129 
Q 1250 4750 2034 4750 
z
" transform="scale(0.015625)"/>
       </defs>
       <use xlink:href="#DejaVuSans-31"/>
       <use xlink:href="#DejaVuSans-37" x="63.623047"/>
       <use xlink:href="#DejaVuSans-30" x="127.246094"/>
       <use xlink:href="#DejaVuSans-30" x="190.869141"/>
      </g>
     </g>
    </g>
    <g id="xtick_2">
     <g id="line2d_2">
      <g>
       <use xlink:href="#m6a83042de6" x="162.186434" y="343.718125" style="stroke: #000000; stroke-width: 0.8"/>
      </g>
     </g>
     <g id="text_2">
      <!-- 1750 -->
      <g transform="translate(149.461434 358.316562) scale(0.1 -0.1)">
       <defs>
        <path id="DejaVuSans-35" d="M 691 4666 
L 3169 4666 
L 3169 4134 
L 1269 4134 
L 1269 2991 
Q 1406 3038 1543 3061 
Q 1681 3084 1819 3084 
Q 2600 3084 3056 2656 
Q 3513 2228 3513 1497 
Q 3513 744 3044 326 
Q 2575 -91 1722 -91 
Q 1428 -91 1123 -41 
Q 819 9 494 109 
L 494 744 
Q 775 591 1075 516 
Q 1375 441 1709 441 
Q 2250 441 2565 725 
Q 2881 1009 2881 1497 
Q 2881 1984 2565 2268 
Q 2250 2553 1709 2553 
Q 1456 2553 1204 2497 
Q 953 2441 691 2322 
L 691 4666 
z
" transform="scale(0.015625)"/>
       </defs>
       <use xlink:href="#DejaVuSans-31"/>
       <use xlink:href="#DejaVuSans-37" x="63.623047"/>
       <use xlink:href="#DejaVuSans-35" x="127.246094"/>
       <use xlink:href="#DejaVuSans-30" x="190.869141"/>
      </g>
     </g>
    </g>
    <g id="xtick_3">
     <g id="line2d_3">
      <g>
       <use xlink:href="#m6a83042de6" x="258.601135" y="343.718125" style="stroke: #000000; stroke-width: 0.8"/>
      </g>
     </g>
     <g id="text_3">
      <!-- 1800 -->
      <g transform="translate(245.876135 358.316562) scale(0.1 -0.1)">
       <defs>
        <path id="DejaVuSans-38" d="M 2034 2216 
Q 1584 2216 1326 1975 
Q 1069 1734 1069 1313 
Q 1069 891 1326 650 
Q 1584 409 2034 409 
Q 2484 409 2743 651 
Q 3003 894 3003 1313 
Q 3003 1734 2745 1975 
Q 2488 2216 2034 2216 
z
M 1403 2484 
Q 997 2584 770 2862 
Q 544 3141 544 3541 
Q 544 4100 942 4425 
Q 1341 4750 2034 4750 
Q 2731 4750 3128 4425 
Q 3525 4100 3525 3541 
Q 3525 3141 3298 2862 
Q 3072 2584 2669 2484 
Q 3125 2378 3379 2068 
Q 3634 1759 3634 1313 
Q 3634 634 3220 271 
Q 2806 -91 2034 -91 
Q 1263 -91 848 271 
Q 434 634 434 1313 
Q 434 1759 690 2068 
Q 947 2378 1403 2484 
z
M 1172 3481 
Q 1172 3119 1398 2916 
Q 1625 2713 2034 2713 
Q 2441 2713 2670 2916 
Q 2900 3119 2900 3481 
Q 2900 3844 2670 4047 
Q 2441 4250 2034 4250 
Q 1625 4250 1398 4047 
Q 1172 3844 1172 3481 
z
" transform="scale(0.015625)"/>
       </defs>
       <use xlink:href="#DejaVuSans-31"/>
       <use xlink:href="#DejaVuSans-38" x="63.623047"/>
       <use xlink:href="#DejaVuSans-30" x="127.246094"/>
       <use xlink:href="#DejaVuSans-30" x="190.869141"/>
      </g>
     </g>
    </g>
    <g id="xtick_4">
     <g id="line2d_4">
      <g>
       <use xlink:href="#m6a83042de6" x="355.015835" y="343.718125" style="stroke: #000000; stroke-width: 0.8"/>
      </g>
     </g>
     <g id="text_4">
      <!-- 1850 -->
      <g transform="translate(342.290835 358.316562) scale(0.1 -0.1)">
       <use xlink:href="#DejaVuSans-31"/>
       <use xlink:href="#DejaVuSans-38" x="63.623047"/>
       <use xlink:href="#DejaVuSans-35" x="127.246094"/>
       <use xlink:href="#DejaVuSans-30" x="190.869141"/>
      </g>
     </g>
    </g>
    <g id="xtick_5">
     <g id="line2d_5">
      <g>
       <use xlink:href="#m6a83042de6" x="451.430536" y="343.718125" style="stroke: #000000; stroke-width: 0.8"/>
      </g>
     </g>
     <g id="text_5">
      <!-- 1900 -->
      <g transform="translate(438.705536 358.316562) scale(0.1 -0.1)">
       <defs>
        <path id="DejaVuSans-39" d="M 703 97 
L 703 672 
Q 941 559 1184 500 
Q 1428 441 1663 441 
Q 2288 441 2617 861 
Q 2947 1281 2994 2138 
Q 2813 1869 2534 1725 
Q 2256 1581 1919 1581 
Q 1219 1581 811 2004 
Q 403 2428 403 3163 
Q 403 3881 828 4315 
Q 1253 4750 1959 4750 
Q 2769 4750 3195 4129 
Q 3622 3509 3622 2328 
Q 3622 1225 3098 567 
Q 2575 -91 1691 -91 
Q 1453 -91 1209 -44 
Q 966 3 703 97 
z
M 1959 2075 
Q 2384 2075 2632 2365 
Q 2881 2656 2881 3163 
Q 2881 3666 2632 3958 
Q 2384 4250 1959 4250 
Q 1534 4250 1286 3958 
Q 1038 3666 1038 3163 
Q 1038 2656 1286 2365 
Q 1534 2075 1959 2075 
z
" transform="scale(0.015625)"/>
       </defs>
       <use xlink:href="#DejaVuSans-31"/>
       <use xlink:href="#DejaVuSans-39" x="63.623047"/>
       <use xlink:href="#DejaVuSans-30" x="127.246094"/>
       <use xlink:href="#DejaVuSans-30" x="190.869141"/>
      </g>
     </g>
    </g>
    <g id="xtick_6">
     <g id="line2d_6">
      <g>
       <use xlink:href="#m6a83042de6" x="547.845237" y="343.718125" style="stroke: #000000; stroke-width: 0.8"/>
      </g>
     </g>
     <g id="text_6">
      <!-- 1950 -->
      <g transform="translate(535.120237 358.316562) scale(0.1 -0.1)">
       <use xlink:href="#DejaVuSans-31"/>
       <use xlink:href="#DejaVuSans-39" x="63.623047"/>
       <use xlink:href="#DejaVuSans-35" x="127.246094"/>
       <use xlink:href="#DejaVuSans-30" x="190.869141"/>
      </g>
     </g>
    </g>
    <g id="xtick_7">
     <g id="line2d_7">
      <g>
       <use xlink:href="#m6a83042de6" x="644.259938" y="343.718125" style="stroke: #000000; stroke-width: 0.8"/>
      </g>
     </g>
     <g id="text_7">
      <!-- 2000 -->
      <g transform="translate(631.534938 358.316562) scale(0.1 -0.1)">
       <defs>
        <path id="DejaVuSans-32" d="M 1228 531 
L 3431 531 
L 3431 0 
L 469 0 
L 469 531 
Q 828 903 1448 1529 
Q 2069 2156 2228 2338 
Q 2531 2678 2651 2914 
Q 2772 3150 2772 3378 
Q 2772 3750 2511 3984 
Q 2250 4219 1831 4219 
Q 1534 4219 1204 4116 
Q 875 4013 500 3803 
L 500 4441 
Q 881 4594 1212 4672 
Q 1544 4750 1819 4750 
Q 2544 4750 2975 4387 
Q 3406 4025 3406 3419 
Q 3406 3131 3298 2873 
Q 3191 2616 2906 2266 
Q 2828 2175 2409 1742 
Q 1991 1309 1228 531 
z
" transform="scale(0.015625)"/>
       </defs>
       <use xlink:href="#DejaVuSans-32"/>
       <use xlink:href="#DejaVuSans-30" x="63.623047"/>
       <use xlink:href="#DejaVuSans-30" x="127.246094"/>
       <use xlink:href="#DejaVuSans-30" x="190.869141"/>
      </g>
     </g>
    </g>
   </g>
   <g id="matplotlib.axis_2">
    <g id="ytick_1">
     <g id="line2d_8">
      <defs>
       <path id="m67e930c126" d="M 0 0 
L -3.5 0 
" style="stroke: #000000; stroke-width: 0.8"/>
      </defs>
      <g>
       <use xlink:href="#m67e930c126" x="35.304688" y="329.109034" style="stroke: #000000; stroke-width: 0.8"/>
      </g>
     </g>
     <g id="text_8">
      <!-- −20 -->
      <g transform="translate(7.2 332.908253) scale(0.1 -0.1)">
       <defs>
        <path id="DejaVuSans-2212" d="M 678 2272 
L 4684 2272 
L 4684 1741 
L 678 1741 
L 678 2272 
z
" transform="scale(0.015625)"/>
       </defs>
       <use xlink:href="#DejaVuSans-2212"/>
       <use xlink:href="#DejaVuSans-32" x="83.789062"/>
       <use xlink:href="#DejaVuSans-30" x="147.412109"/>
      </g>
     </g>
    </g>
    <g id="ytick_2">
     <g id="line2d_9">
      <g>
       <use xlink:href="#m67e930c126" x="35.304688" y="292.586307" style="stroke: #000000; stroke-width: 0.8"/>
      </g>
     </g>
     <g id="text_9">
      <!-- −15 -->
      <g transform="translate(7.2 296.385526) scale(0.1 -0.1)">
       <use xlink:href="#DejaVuSans-2212"/>
       <use xlink:href="#DejaVuSans-31" x="83.789062"/>
       <use xlink:href="#DejaVuSans-35" x="147.412109"/>
      </g>
     </g>
    </g>
    <g id="ytick_3">
     <g id="line2d_10">
      <g>
       <use xlink:href="#m67e930c126" x="35.304688" y="256.06358" style="stroke: #000000; stroke-width: 0.8"/>
      </g>
     </g>
     <g id="text_10">
      <!-- −10 -->
      <g transform="translate(7.2 259.862798) scale(0.1 -0.1)">
       <use xlink:href="#DejaVuSans-2212"/>
       <use xlink:href="#DejaVuSans-31" x="83.789062"/>
       <use xlink:href="#DejaVuSans-30" x="147.412109"/>
      </g>
     </g>
    </g>
    <g id="ytick_4">
     <g id="line2d_11">
      <g>
       <use xlink:href="#m67e930c126" x="35.304688" y="219.540852" style="stroke: #000000; stroke-width: 0.8"/>
      </g>
     </g>
     <g id="text_11">
      <!-- −5 -->
      <g transform="translate(13.5625 223.340071) scale(0.1 -0.1)">
       <use xlink:href="#DejaVuSans-2212"/>
       <use xlink:href="#DejaVuSans-35" x="83.789062"/>
      </g>
     </g>
    </g>
    <g id="ytick_5">
     <g id="line2d_12">
      <g>
       <use xlink:href="#m67e930c126" x="35.304688" y="183.018125" style="stroke: #000000; stroke-width: 0.8"/>
      </g>
     </g>
     <g id="text_12">
      <!-- 0 -->
      <g transform="translate(21.942187 186.817344) scale(0.1 -0.1)">
       <use xlink:href="#DejaVuSans-30"/>
      </g>
     </g>
    </g>
    <g id="ytick_6">
     <g id="line2d_13">
      <g>
       <use xlink:href="#m67e930c126" x="35.304688" y="146.495398" style="stroke: #000000; stroke-width: 0.8"/>
      </g>
     </g>
     <g id="text_13">
      <!-- 5 -->
      <g transform="translate(21.942187 150.294616) scale(0.1 -0.1)">
       <use xlink:href="#DejaVuSans-35"/>
      </g>
     </g>
    </g>
    <g id="ytick_7">
     <g id="line2d_14">
      <g>
       <use xlink:href="#m67e930c126" x="35.304688" y="109.97267" style="stroke: #000000; stroke-width: 0.8"/>
      </g>
     </g>
     <g id="text_14">
      <!-- 10 -->
      <g transform="translate(15.579687 113.771889) scale(0.1 -0.1)">
       <use xlink:href="#DejaVuSans-31"/>
       <use xlink:href="#DejaVuSans-30" x="63.623047"/>
      </g>
     </g>
    </g>
    <g id="ytick_8">
     <g id="line2d_15">
      <g>
       <use xlink:href="#m67e930c126" x="35.304688" y="73.449943" style="stroke: #000000; stroke-width: 0.8"/>
      </g>
     </g>
     <g id="text_15">
      <!-- 15 -->
      <g transform="translate(15.579687 77.249162) scale(0.1 -0.1)">
       <use xlink:href="#DejaVuSans-31"/>
       <use xlink:href="#DejaVuSans-35" x="63.623047"/>
      </g>
     </g>
    </g>
    <g id="ytick_9">
     <g id="line2d_16">
      <g>
       <use xlink:href="#m67e930c126" x="35.304688" y="36.927216" style="stroke: #000000; stroke-width: 0.8"/>
      </g>
     </g>
     <g id="text_16">
      <!-- 20 -->
      <g transform="translate(15.579687 40.726435) scale(0.1 -0.1)">
       <use xlink:href="#DejaVuSans-32"/>
       <use xlink:href="#DejaVuSans-30" x="63.623047"/>
      </g>
     </g>
    </g>
   </g>
   <g id="line2d_17">
    <path d="M 65.771733 117.478091 
L 67.700027 201.837264 
L 69.628321 229.882993 
L 71.556615 43.850172 
L 73.484909 220.136684 
L 75.413203 294.937056 
L 77.341497 92.804724 
L 79.269791 135.975026 
L 81.198085 280.647612 
L 83.126379 249.345005 
L 85.054673 117.071009 
L 86.982967 183.667718 
L 88.911261 214.371791 
L 90.839555 109.950026 
L 92.767849 203.535351 
L 94.696143 155.412495 
L 96.624437 141.791051 
L 98.552731 141.804053 
L 100.481025 195.880188 
L 102.409319 136.418485 
L 104.337613 211.54106 
L 106.265907 175.187944 
L 108.194201 200.554293 
L 110.122495 190.340494 
L 112.050789 163.936315 
L 113.979083 205.612034 
L 115.907377 187.393621 
L 117.835671 160.757377 
L 119.763965 223.598966 
L 121.692259 166.283265 
L 123.620553 194.640679 
L 125.548847 134.492349 
L 127.477141 166.827235 
L 129.405435 185.667922 
L 131.33373 200.333915 
L 133.262024 128.719786 
L 135.190318 222.121475 
L 137.118612 169.38536 
L 139.046906 187.927145 
L 140.9752 195.256087 
L 142.903494 161.715441 
L 144.831788 166.214676 
L 146.760082 200.182565 
L 148.688376 193.203729 
L 150.61667 172.275257 
L 152.544964 160.098726 
L 154.473258 149.684927 
L 156.401552 190.839394 
L 158.329846 187.380034 
L 160.25814 172.431793 
L 162.186434 198.805877 
L 164.114728 147.042508 
L 166.043022 176.539943 
L 167.971316 203.48254 
L 169.89961 160.889662 
L 171.827904 195.373106 
L 173.756198 140.967245 
L 175.684492 172.83946 
L 177.612786 171.446337 
L 179.54108 161.793307 
L 181.469374 153.972111 
L 183.397668 203.309787 
L 185.325962 185.451561 
L 187.254256 183.299861 
L 189.18255 188.93656 
L 191.110844 173.262978 
L 193.039138 178.017871 
L 194.967432 176.288155 
L 196.895726 141.719394 
L 198.82402 202.99781 
L 200.752314 169.368559 
L 202.680608 201.645227 
L 204.608902 170.034661 
L 206.537196 199.22976 
L 208.46549 159.688868 
L 210.393784 159.357387 
L 212.322078 161.885564 
L 214.250372 188.14241 
L 216.178666 185.015699 
L 218.10696 149.633577 
L 220.035254 162.18673 
L 221.963548 190.31259 
L 223.891842 186.78055 
L 225.820136 180.142325 
L 227.74843 188.119327 
L 229.676724 170.214937 
L 231.605018 195.173619 
L 233.533312 184.716286 
L 235.461606 166.669676 
L 237.3899 127.573922 
L 239.318194 179.887324 
L 241.246488 153.670945 
L 243.174782 194.868581 
L 245.103076 206.654611 
L 247.03137 103.657891 
L 248.959664 169.928818 
L 250.887959 188.309172 
L 254.744547 163.821706 
L 256.672841 147.385457 
L 258.601135 176.478658 
L 260.529429 174.533384 
L 262.457723 198.307488 
L 264.386017 183.672539 
L 266.314311 138.717445 
L 268.242605 185.853165 
L 270.170899 135.282993 
L 272.099193 217.05979 
L 274.027487 160.074402 
L 275.955781 135.945808 
L 277.884075 190.573874 
L 279.812369 213.097294 
L 281.740663 143.3383 
L 283.668957 199.183668 
L 285.597251 105.010693 
L 287.525545 221.269035 
L 289.453839 170.753574 
L 291.382133 183.744781 
L 293.310427 194.995169 
L 295.238721 123.687466 
L 297.167015 170.570668 
L 299.095309 168.89632 
L 301.023603 161.489511 
L 302.951897 142.966572 
L 304.880191 166.534249 
L 306.808485 222.031118 
L 308.736779 126.740766 
L 310.665073 180.784322 
L 312.593367 176.821241 
L 314.521661 150.278276 
L 316.449955 160.743352 
L 318.378249 179.041019 
L 320.306543 174.840832 
L 322.234837 157.722995 
L 324.163131 138.732711 
L 328.019719 189.248172 
L 329.948013 147.657113 
L 331.876307 167.180336 
L 333.804601 179.732979 
L 335.732895 203.020162 
L 337.661189 189.382795 
L 339.589483 157.608095 
L 341.517777 129.077344 
L 343.446071 148.526573 
L 345.374365 147.973692 
L 347.302659 192.93967 
L 349.230953 161.529759 
L 351.159247 172.134644 
L 353.087541 191.994754 
L 355.015835 149.726929 
L 356.944129 159.823564 
L 358.872423 157.303203 
L 360.800717 155.730827 
L 362.729011 188.10428 
L 364.657305 147.929061 
L 366.585599 177.817435 
L 368.513893 185.298677 
L 370.442188 153.590303 
L 372.370482 166.723364 
L 374.298776 169.609098 
L 376.22707 190.332239 
L 378.155364 145.569985 
L 380.083658 173.6835 
L 382.011952 148.269453 
L 383.940246 173.562464 
L 385.86854 178.101143 
L 387.796834 154.67196 
L 389.725128 166.629866 
L 391.653422 125.883066 
L 393.581716 141.256651 
L 395.51001 179.768844 
L 397.438304 178.179448 
L 399.366598 152.684904 
L 401.294892 175.583193 
L 403.223186 179.957374 
L 405.15148 176.085016 
L 407.079774 183.954933 
L 409.008068 195.320148 
L 410.936362 131.013633 
L 412.864656 162.935665 
L 414.79295 170.841229 
L 416.721244 161.39689 
L 418.649538 191.450419 
L 420.577832 190.852615 
L 422.506126 180.820845 
L 424.43442 151.726329 
L 426.362714 157.492172 
L 428.291008 159.411222 
L 430.219302 175.890496 
L 432.147596 160.198871 
L 434.07589 202.082623 
L 436.004184 190.147434 
L 437.932478 147.509561 
L 439.860772 158.992525 
L 441.789066 153.661157 
L 443.71736 172.826093 
L 445.645654 148.015474 
L 447.573948 155.84748 
L 449.502242 183.256326 
L 451.430536 166.651999 
L 453.35883 172.008933 
L 455.287124 191.504692 
L 457.215418 173.738942 
L 459.143712 158.796325 
L 461.072006 165.108548 
L 463.0003 165.309204 
L 464.928594 212.549307 
L 466.856888 165.859017 
L 468.785182 162.312295 
L 470.713476 157.505247 
L 472.64177 170.001206 
L 474.570064 150.568997 
L 476.498358 168.117291 
L 478.426652 142.66767 
L 480.354946 174.548505 
L 482.28324 186.963237 
L 484.211534 168.842705 
L 486.139828 240.102782 
L 488.068122 225.330508 
L 489.996416 253.95242 
L 491.924711 144.236759 
L 493.853005 161.379578 
L 495.781299 148.541547 
L 497.709593 157.313722 
L 499.637887 205.807211 
L 501.566181 126.843906 
L 503.494475 176.495458 
L 505.422769 162.177161 
L 509.279357 216.905226 
L 511.207651 182.517471 
L 513.135945 159.788648 
L 515.064239 139.433582 
L 516.992533 156.004674 
L 518.920827 148.186619 
L 520.849121 157.454334 
L 522.777415 177.348775 
L 524.705709 150.874254 
L 526.634003 110.536581 
L 528.562297 119.41438 
L 530.490591 169.921294 
L 532.418885 170.468039 
L 534.347179 215.16017 
L 536.275473 216.421592 
L 538.203767 200.976058 
L 540.132061 192.340551 
L 542.060355 159.530578 
L 543.988649 158.32153 
L 545.916943 158.831387 
L 547.845237 155.649454 
L 549.773531 171.38381 
L 551.701825 142.654229 
L 553.630119 151.631516 
L 555.558413 155.09314 
L 557.486707 171.195718 
L 559.415001 169.036641 
L 561.343295 173.767429 
L 563.271589 153.012367 
L 565.199883 137.152154 
L 567.128177 163.472476 
L 569.056471 175.019575 
L 570.984765 147.387356 
L 572.913059 142.565552 
L 574.841353 167.467697 
L 576.769647 171.582932 
L 578.697941 162.699363 
L 580.626235 143.21478 
L 582.554529 168.981272 
L 588.339411 151.648974 
L 590.267705 135.421195 
L 592.195999 201.079855 
L 594.124293 193.889772 
L 596.052587 161.67585 
L 597.980881 165.025496 
L 599.909175 152.373512 
L 601.837469 155.731995 
L 603.765763 197.927871 
L 605.694057 188.707855 
L 607.622351 168.294572 
L 609.550645 152.18878 
L 611.47894 166.403425 
L 613.407234 152.431729 
L 615.335528 159.985067 
L 617.263822 143.86956 
L 619.192116 140.743799 
L 621.12041 164.151215 
L 624.976998 191.191765 
L 626.905292 180.389438 
L 628.833586 164.705556 
L 630.76188 154.639455 
L 632.690174 164.710231 
L 634.618468 164.400811 
L 636.546762 160.175497 
L 638.475056 159.710927 
L 640.40335 159.034746 
L 642.331644 155.662894 
L 644.259938 163.105131 
L 646.188232 165.507303 
L 648.116526 157.699329 
L 650.04482 164.552672 
L 651.973114 161.308285 
L 653.901408 164.734775 
L 655.829702 164.349022 
L 657.757996 187.599609 
L 659.68629 214.630299 
L 661.614584 169.02919 
L 663.542878 171.994689 
L 665.471172 173.427111 
L 667.399466 169.058554 
L 669.32776 160.589664 
L 671.256054 166.990272 
L 673.184348 169.82597 
L 673.184348 169.82597 
" clip-path="url(#pcd078c9ff3)" style="fill: none; stroke: #1f77b4; stroke-width: 1.5; stroke-linecap: square"/>
   </g>
   <g id="line2d_18">
    <path d="M 74.449056 343.718125 
L 74.449056 22.318125 
" clip-path="url(#pcd078c9ff3)" style="fill: none; stroke-dasharray: 3.7,1.6; stroke-dashoffset: 0; stroke: #000000"/>
   </g>
   <g id="line2d_19">
    <path d="M 84.090526 343.718125 
L 84.090526 22.318125 
" clip-path="url(#pcd078c9ff3)" style="fill: none; stroke-dasharray: 3.7,1.6; stroke-dashoffset: 0; stroke: #000000"/>
   </g>
   <g id="line2d_20">
    <path d="M 228.712577 343.718125 
L 228.712577 22.318125 
" clip-path="url(#pcd078c9ff3)" style="fill: none; stroke-dasharray: 3.7,1.6; stroke-dashoffset: 0; stroke: #000000"/>
   </g>
   <g id="line2d_21">
    <path d="M 479.390799 343.718125 
L 479.390799 22.318125 
" clip-path="url(#pcd078c9ff3)" style="fill: none; stroke-dasharray: 3.7,1.6; stroke-dashoffset: 0; stroke: #000000"/>
   </g>
   <g id="line2d_22">
    <path d="M 489.032269 343.718125 
L 489.032269 22.318125 
" clip-path="url(#pcd078c9ff3)" style="fill: none; stroke-dasharray: 3.7,1.6; stroke-dashoffset: 0; stroke: #000000"/>
   </g>
   <g id="line2d_23">
    <path d="M 35.304688 183.018125 
L 705.579688 183.018125 
" clip-path="url(#pcd078c9ff3)" style="fill: none; stroke: #000000; stroke-linecap: square"/>
   </g>
   <g id="LineCollection_1">
    <path d="M 65.771733 162.637041 
L 75.413203 162.637041 
" clip-path="url(#pcd078c9ff3)" style="fill: none; stroke-dasharray: 3.7,1.6; stroke-dashoffset: 0; stroke: #000000"/>
   </g>
   <g id="LineCollection_2">
    <path d="M 75.413203 210.741884 
L 85.054673 210.741884 
" clip-path="url(#pcd078c9ff3)" style="fill: none; stroke-dasharray: 3.7,1.6; stroke-dashoffset: 0; stroke: #000000"/>
   </g>
   <g id="LineCollection_3">
    <path d="M 85.054673 175.899805 
L 229.676724 175.899805 
" clip-path="url(#pcd078c9ff3)" style="fill: none; stroke-dasharray: 3.7,1.6; stroke-dashoffset: 0; stroke: #000000"/>
   </g>
   <g id="LineCollection_4">
    <path d="M 229.676724 168.156251 
L 480.354946 168.156251 
" clip-path="url(#pcd078c9ff3)" style="fill: none; stroke-dasharray: 3.7,1.6; stroke-dashoffset: 0; stroke: #000000"/>
   </g>
   <g id="LineCollection_5">
    <path d="M 480.354946 199.157547 
L 489.996416 199.157547 
" clip-path="url(#pcd078c9ff3)" style="fill: none; stroke-dasharray: 3.7,1.6; stroke-dashoffset: 0; stroke: #000000"/>
   </g>
   <g id="LineCollection_6">
    <path d="M 489.996416 166.02203 
L 675.112642 166.02203 
" clip-path="url(#pcd078c9ff3)" style="fill: none; stroke-dasharray: 3.7,1.6; stroke-dashoffset: 0; stroke: #000000"/>
   </g>
   <g id="patch_9">
    <path d="M 35.304688 343.718125 
L 35.304688 22.318125 
" style="fill: none; stroke: #000000; stroke-width: 0.8; stroke-linejoin: miter; stroke-linecap: square"/>
   </g>
   <g id="patch_10">
    <path d="M 705.579688 343.718125 
L 705.579688 22.318125 
" style="fill: none; stroke: #000000; stroke-width: 0.8; stroke-linejoin: miter; stroke-linecap: square"/>
   </g>
   <g id="patch_11">
    <path d="M 35.304688 343.718125 
L 705.579687 343.718125 
" style="fill: none; stroke: #000000; stroke-width: 0.8; stroke-linejoin: miter; stroke-linecap: square"/>
   </g>
   <g id="patch_12">
    <path d="M 35.304688 22.318125 
L 705.579687 22.318125 
" style="fill: none; stroke: #000000; stroke-width: 0.8; stroke-linejoin: miter; stroke-linecap: square"/>
   </g>
   <g id="text_17">
    <g id="patch_13">
     <path d="M 61.233203 336.980284 
L 89.593203 336.980284 
L 89.593203 321.237784 
L 61.233203 321.237784 
z
" style="fill: #ffffff; stroke: #000000; stroke-linejoin: miter"/>
    </g>
    <!-- 1705 -->
    <g transform="translate(65.233203 331.316534) scale(0.08 -0.08)">
     <use xlink:href="#DejaVuSans-31"/>
     <use xlink:href="#DejaVuSans-37" x="63.623047"/>
     <use xlink:href="#DejaVuSans-30" x="127.246094"/>
     <use xlink:href="#DejaVuSans-35" x="190.869141"/>
    </g>
   </g>
   <g id="text_18">
    <g id="patch_14">
     <path d="M 70.874673 44.798466 
L 99.234673 44.798466 
L 99.234673 29.055966 
L 70.874673 29.055966 
z
" style="fill: #ffffff; stroke: #000000; stroke-linejoin: miter"/>
    </g>
    <!-- 1710 -->
    <g transform="translate(74.874673 39.134716) scale(0.08 -0.08)">
     <use xlink:href="#DejaVuSans-31"/>
     <use xlink:href="#DejaVuSans-37" x="63.623047"/>
     <use xlink:href="#DejaVuSans-31" x="127.246094"/>
     <use xlink:href="#DejaVuSans-30" x="190.869141"/>
    </g>
   </g>
   <g id="text_19">
    <g id="patch_15">
     <path d="M 215.496724 336.980284 
L 243.856724 336.980284 
L 243.856724 321.237784 
L 215.496724 321.237784 
z
" style="fill: #ffffff; stroke: #000000; stroke-linejoin: miter"/>
    </g>
    <!-- 1785 -->
    <g transform="translate(219.496724 331.316534) scale(0.08 -0.08)">
     <use xlink:href="#DejaVuSans-31"/>
     <use xlink:href="#DejaVuSans-37" x="63.623047"/>
     <use xlink:href="#DejaVuSans-38" x="127.246094"/>
     <use xlink:href="#DejaVuSans-35" x="190.869141"/>
    </g>
   </g>
   <g id="text_20">
    <g id="patch_16">
     <path d="M 466.174946 44.798466 
L 494.534946 44.798466 
L 494.534946 29.055966 
L 466.174946 29.055966 
z
" style="fill: #ffffff; stroke: #000000; stroke-linejoin: miter"/>
    </g>
    <!-- 1915 -->
    <g transform="translate(470.174946 39.134716) scale(0.08 -0.08)">
     <use xlink:href="#DejaVuSans-31"/>
     <use xlink:href="#DejaVuSans-39" x="63.623047"/>
     <use xlink:href="#DejaVuSans-31" x="127.246094"/>
     <use xlink:href="#DejaVuSans-35" x="190.869141"/>
    </g>
   </g>
   <g id="text_21">
    <g id="patch_17">
     <path d="M 475.816416 336.980284 
L 504.176416 336.980284 
L 504.176416 321.237784 
L 475.816416 321.237784 
z
" style="fill: #ffffff; stroke: #000000; stroke-linejoin: miter"/>
    </g>
    <!-- 1920 -->
    <g transform="translate(479.816416 331.316534) scale(0.08 -0.08)">
     <use xlink:href="#DejaVuSans-31"/>
     <use xlink:href="#DejaVuSans-39" x="63.623047"/>
     <use xlink:href="#DejaVuSans-32" x="127.246094"/>
     <use xlink:href="#DejaVuSans-30" x="190.869141"/>
    </g>
   </g>
   <g id="text_22">
    <g id="patch_18">
     <path d="M 660.932642 44.798466 
L 689.292642 44.798466 
L 689.292642 29.055966 
L 660.932642 29.055966 
z
" style="fill: #ffffff; stroke: #000000; stroke-linejoin: miter"/>
    </g>
    <!-- 2016 -->
    <g transform="translate(664.932642 39.134716) scale(0.08 -0.08)">
     <defs>
      <path id="DejaVuSans-36" d="M 2113 2584 
Q 1688 2584 1439 2293 
Q 1191 2003 1191 1497 
Q 1191 994 1439 701 
Q 1688 409 2113 409 
Q 2538 409 2786 701 
Q 3034 994 3034 1497 
Q 3034 2003 2786 2293 
Q 2538 2584 2113 2584 
z
M 3366 4563 
L 3366 3988 
Q 3128 4100 2886 4159 
Q 2644 4219 2406 4219 
Q 1781 4219 1451 3797 
Q 1122 3375 1075 2522 
Q 1259 2794 1537 2939 
Q 1816 3084 2150 3084 
Q 2853 3084 3261 2657 
Q 3669 2231 3669 1497 
Q 3669 778 3244 343 
Q 2819 -91 2113 -91 
Q 1303 -91 875 529 
Q 447 1150 447 2328 
Q 447 3434 972 4092 
Q 1497 4750 2381 4750 
Q 2619 4750 2861 4703 
Q 3103 4656 3366 4563 
z
" transform="scale(0.015625)"/>
     </defs>
     <use xlink:href="#DejaVuSans-32"/>
     <use xlink:href="#DejaVuSans-30" x="63.623047"/>
     <use xlink:href="#DejaVuSans-31" x="127.246094"/>
     <use xlink:href="#DejaVuSans-36" x="190.869141"/>
    </g>
   </g>
   <g id="text_23">
    <!-- Structural breaks (per ruptures) in UK GDP growth data -->
    <g transform="translate(204.281563 16.318125) scale(0.12 -0.12)">
     <defs>
      <path id="DejaVuSans-53" d="M 3425 4513 
L 3425 3897 
Q 3066 4069 2747 4153 
Q 2428 4238 2131 4238 
Q 1616 4238 1336 4038 
Q 1056 3838 1056 3469 
Q 1056 3159 1242 3001 
Q 1428 2844 1947 2747 
L 2328 2669 
Q 3034 2534 3370 2195 
Q 3706 1856 3706 1288 
Q 3706 609 3251 259 
Q 2797 -91 1919 -91 
Q 1588 -91 1214 -16 
Q 841 59 441 206 
L 441 856 
Q 825 641 1194 531 
Q 1563 422 1919 422 
Q 2459 422 2753 634 
Q 3047 847 3047 1241 
Q 3047 1584 2836 1778 
Q 2625 1972 2144 2069 
L 1759 2144 
Q 1053 2284 737 2584 
Q 422 2884 422 3419 
Q 422 4038 858 4394 
Q 1294 4750 2059 4750 
Q 2388 4750 2728 4690 
Q 3069 4631 3425 4513 
z
" transform="scale(0.015625)"/>
      <path id="DejaVuSans-74" d="M 1172 4494 
L 1172 3500 
L 2356 3500 
L 2356 3053 
L 1172 3053 
L 1172 1153 
Q 1172 725 1289 603 
Q 1406 481 1766 481 
L 2356 481 
L 2356 0 
L 1766 0 
Q 1100 0 847 248 
Q 594 497 594 1153 
L 594 3053 
L 172 3053 
L 172 3500 
L 594 3500 
L 594 4494 
L 1172 4494 
z
" transform="scale(0.015625)"/>
      <path id="DejaVuSans-72" d="M 2631 2963 
Q 2534 3019 2420 3045 
Q 2306 3072 2169 3072 
Q 1681 3072 1420 2755 
Q 1159 2438 1159 1844 
L 1159 0 
L 581 0 
L 581 3500 
L 1159 3500 
L 1159 2956 
Q 1341 3275 1631 3429 
Q 1922 3584 2338 3584 
Q 2397 3584 2469 3576 
Q 2541 3569 2628 3553 
L 2631 2963 
z
" transform="scale(0.015625)"/>
      <path id="DejaVuSans-75" d="M 544 1381 
L 544 3500 
L 1119 3500 
L 1119 1403 
Q 1119 906 1312 657 
Q 1506 409 1894 409 
Q 2359 409 2629 706 
Q 2900 1003 2900 1516 
L 2900 3500 
L 3475 3500 
L 3475 0 
L 2900 0 
L 2900 538 
Q 2691 219 2414 64 
Q 2138 -91 1772 -91 
Q 1169 -91 856 284 
Q 544 659 544 1381 
z
M 1991 3584 
L 1991 3584 
z
" transform="scale(0.015625)"/>
      <path id="DejaVuSans-63" d="M 3122 3366 
L 3122 2828 
Q 2878 2963 2633 3030 
Q 2388 3097 2138 3097 
Q 1578 3097 1268 2742 
Q 959 2388 959 1747 
Q 959 1106 1268 751 
Q 1578 397 2138 397 
Q 2388 397 2633 464 
Q 2878 531 3122 666 
L 3122 134 
Q 2881 22 2623 -34 
Q 2366 -91 2075 -91 
Q 1284 -91 818 406 
Q 353 903 353 1747 
Q 353 2603 823 3093 
Q 1294 3584 2113 3584 
Q 2378 3584 2631 3529 
Q 2884 3475 3122 3366 
z
" transform="scale(0.015625)"/>
      <path id="DejaVuSans-61" d="M 2194 1759 
Q 1497 1759 1228 1600 
Q 959 1441 959 1056 
Q 959 750 1161 570 
Q 1363 391 1709 391 
Q 2188 391 2477 730 
Q 2766 1069 2766 1631 
L 2766 1759 
L 2194 1759 
z
M 3341 1997 
L 3341 0 
L 2766 0 
L 2766 531 
Q 2569 213 2275 61 
Q 1981 -91 1556 -91 
Q 1019 -91 701 211 
Q 384 513 384 1019 
Q 384 1609 779 1909 
Q 1175 2209 1959 2209 
L 2766 2209 
L 2766 2266 
Q 2766 2663 2505 2880 
Q 2244 3097 1772 3097 
Q 1472 3097 1187 3025 
Q 903 2953 641 2809 
L 641 3341 
Q 956 3463 1253 3523 
Q 1550 3584 1831 3584 
Q 2591 3584 2966 3190 
Q 3341 2797 3341 1997 
z
" transform="scale(0.015625)"/>
      <path id="DejaVuSans-6c" d="M 603 4863 
L 1178 4863 
L 1178 0 
L 603 0 
L 603 4863 
z
" transform="scale(0.015625)"/>
      <path id="DejaVuSans-20" transform="scale(0.015625)"/>
      <path id="DejaVuSans-62" d="M 3116 1747 
Q 3116 2381 2855 2742 
Q 2594 3103 2138 3103 
Q 1681 3103 1420 2742 
Q 1159 2381 1159 1747 
Q 1159 1113 1420 752 
Q 1681 391 2138 391 
Q 2594 391 2855 752 
Q 3116 1113 3116 1747 
z
M 1159 2969 
Q 1341 3281 1617 3432 
Q 1894 3584 2278 3584 
Q 2916 3584 3314 3078 
Q 3713 2572 3713 1747 
Q 3713 922 3314 415 
Q 2916 -91 2278 -91 
Q 1894 -91 1617 61 
Q 1341 213 1159 525 
L 1159 0 
L 581 0 
L 581 4863 
L 1159 4863 
L 1159 2969 
z
" transform="scale(0.015625)"/>
      <path id="DejaVuSans-65" d="M 3597 1894 
L 3597 1613 
L 953 1613 
Q 991 1019 1311 708 
Q 1631 397 2203 397 
Q 2534 397 2845 478 
Q 3156 559 3463 722 
L 3463 178 
Q 3153 47 2828 -22 
Q 2503 -91 2169 -91 
Q 1331 -91 842 396 
Q 353 884 353 1716 
Q 353 2575 817 3079 
Q 1281 3584 2069 3584 
Q 2775 3584 3186 3129 
Q 3597 2675 3597 1894 
z
M 3022 2063 
Q 3016 2534 2758 2815 
Q 2500 3097 2075 3097 
Q 1594 3097 1305 2825 
Q 1016 2553 972 2059 
L 3022 2063 
z
" transform="scale(0.015625)"/>
      <path id="DejaVuSans-6b" d="M 581 4863 
L 1159 4863 
L 1159 1991 
L 2875 3500 
L 3609 3500 
L 1753 1863 
L 3688 0 
L 2938 0 
L 1159 1709 
L 1159 0 
L 581 0 
L 581 4863 
z
" transform="scale(0.015625)"/>
      <path id="DejaVuSans-73" d="M 2834 3397 
L 2834 2853 
Q 2591 2978 2328 3040 
Q 2066 3103 1784 3103 
Q 1356 3103 1142 2972 
Q 928 2841 928 2578 
Q 928 2378 1081 2264 
Q 1234 2150 1697 2047 
L 1894 2003 
Q 2506 1872 2764 1633 
Q 3022 1394 3022 966 
Q 3022 478 2636 193 
Q 2250 -91 1575 -91 
Q 1294 -91 989 -36 
Q 684 19 347 128 
L 347 722 
Q 666 556 975 473 
Q 1284 391 1588 391 
Q 1994 391 2212 530 
Q 2431 669 2431 922 
Q 2431 1156 2273 1281 
Q 2116 1406 1581 1522 
L 1381 1569 
Q 847 1681 609 1914 
Q 372 2147 372 2553 
Q 372 3047 722 3315 
Q 1072 3584 1716 3584 
Q 2034 3584 2315 3537 
Q 2597 3491 2834 3397 
z
" transform="scale(0.015625)"/>
      <path id="DejaVuSans-28" d="M 1984 4856 
Q 1566 4138 1362 3434 
Q 1159 2731 1159 2009 
Q 1159 1288 1364 580 
Q 1569 -128 1984 -844 
L 1484 -844 
Q 1016 -109 783 600 
Q 550 1309 550 2009 
Q 550 2706 781 3412 
Q 1013 4119 1484 4856 
L 1984 4856 
z
" transform="scale(0.015625)"/>
      <path id="DejaVuSans-70" d="M 1159 525 
L 1159 -1331 
L 581 -1331 
L 581 3500 
L 1159 3500 
L 1159 2969 
Q 1341 3281 1617 3432 
Q 1894 3584 2278 3584 
Q 2916 3584 3314 3078 
Q 3713 2572 3713 1747 
Q 3713 922 3314 415 
Q 2916 -91 2278 -91 
Q 1894 -91 1617 61 
Q 1341 213 1159 525 
z
M 3116 1747 
Q 3116 2381 2855 2742 
Q 2594 3103 2138 3103 
Q 1681 3103 1420 2742 
Q 1159 2381 1159 1747 
Q 1159 1113 1420 752 
Q 1681 391 2138 391 
Q 2594 391 2855 752 
Q 3116 1113 3116 1747 
z
" transform="scale(0.015625)"/>
      <path id="DejaVuSans-29" d="M 513 4856 
L 1013 4856 
Q 1481 4119 1714 3412 
Q 1947 2706 1947 2009 
Q 1947 1309 1714 600 
Q 1481 -109 1013 -844 
L 513 -844 
Q 928 -128 1133 580 
Q 1338 1288 1338 2009 
Q 1338 2731 1133 3434 
Q 928 4138 513 4856 
z
" transform="scale(0.015625)"/>
      <path id="DejaVuSans-69" d="M 603 3500 
L 1178 3500 
L 1178 0 
L 603 0 
L 603 3500 
z
M 603 4863 
L 1178 4863 
L 1178 4134 
L 603 4134 
L 603 4863 
z
" transform="scale(0.015625)"/>
      <path id="DejaVuSans-6e" d="M 3513 2113 
L 3513 0 
L 2938 0 
L 2938 2094 
Q 2938 2591 2744 2837 
Q 2550 3084 2163 3084 
Q 1697 3084 1428 2787 
Q 1159 2491 1159 1978 
L 1159 0 
L 581 0 
L 581 3500 
L 1159 3500 
L 1159 2956 
Q 1366 3272 1645 3428 
Q 1925 3584 2291 3584 
Q 2894 3584 3203 3211 
Q 3513 2838 3513 2113 
z
" transform="scale(0.015625)"/>
      <path id="DejaVuSans-55" d="M 556 4666 
L 1191 4666 
L 1191 1831 
Q 1191 1081 1462 751 
Q 1734 422 2344 422 
Q 2950 422 3222 751 
Q 3494 1081 3494 1831 
L 3494 4666 
L 4128 4666 
L 4128 1753 
Q 4128 841 3676 375 
Q 3225 -91 2344 -91 
Q 1459 -91 1007 375 
Q 556 841 556 1753 
L 556 4666 
z
" transform="scale(0.015625)"/>
      <path id="DejaVuSans-4b" d="M 628 4666 
L 1259 4666 
L 1259 2694 
L 3353 4666 
L 4166 4666 
L 1850 2491 
L 4331 0 
L 3500 0 
L 1259 2247 
L 1259 0 
L 628 0 
L 628 4666 
z
" transform="scale(0.015625)"/>
      <path id="DejaVuSans-47" d="M 3809 666 
L 3809 1919 
L 2778 1919 
L 2778 2438 
L 4434 2438 
L 4434 434 
Q 4069 175 3628 42 
Q 3188 -91 2688 -91 
Q 1594 -91 976 548 
Q 359 1188 359 2328 
Q 359 3472 976 4111 
Q 1594 4750 2688 4750 
Q 3144 4750 3555 4637 
Q 3966 4525 4313 4306 
L 4313 3634 
Q 3963 3931 3569 4081 
Q 3175 4231 2741 4231 
Q 1884 4231 1454 3753 
Q 1025 3275 1025 2328 
Q 1025 1384 1454 906 
Q 1884 428 2741 428 
Q 3075 428 3337 486 
Q 3600 544 3809 666 
z
" transform="scale(0.015625)"/>
      <path id="DejaVuSans-44" d="M 1259 4147 
L 1259 519 
L 2022 519 
Q 2988 519 3436 956 
Q 3884 1394 3884 2338 
Q 3884 3275 3436 3711 
Q 2988 4147 2022 4147 
L 1259 4147 
z
M 628 4666 
L 1925 4666 
Q 3281 4666 3915 4102 
Q 4550 3538 4550 2338 
Q 4550 1131 3912 565 
Q 3275 0 1925 0 
L 628 0 
L 628 4666 
z
" transform="scale(0.015625)"/>
      <path id="DejaVuSans-50" d="M 1259 4147 
L 1259 2394 
L 2053 2394 
Q 2494 2394 2734 2622 
Q 2975 2850 2975 3272 
Q 2975 3691 2734 3919 
Q 2494 4147 2053 4147 
L 1259 4147 
z
M 628 4666 
L 2053 4666 
Q 2838 4666 3239 4311 
Q 3641 3956 3641 3272 
Q 3641 2581 3239 2228 
Q 2838 1875 2053 1875 
L 1259 1875 
L 1259 0 
L 628 0 
L 628 4666 
z
" transform="scale(0.015625)"/>
      <path id="DejaVuSans-67" d="M 2906 1791 
Q 2906 2416 2648 2759 
Q 2391 3103 1925 3103 
Q 1463 3103 1205 2759 
Q 947 2416 947 1791 
Q 947 1169 1205 825 
Q 1463 481 1925 481 
Q 2391 481 2648 825 
Q 2906 1169 2906 1791 
z
M 3481 434 
Q 3481 -459 3084 -895 
Q 2688 -1331 1869 -1331 
Q 1566 -1331 1297 -1286 
Q 1028 -1241 775 -1147 
L 775 -588 
Q 1028 -725 1275 -790 
Q 1522 -856 1778 -856 
Q 2344 -856 2625 -561 
Q 2906 -266 2906 331 
L 2906 616 
Q 2728 306 2450 153 
Q 2172 0 1784 0 
Q 1141 0 747 490 
Q 353 981 353 1791 
Q 353 2603 747 3093 
Q 1141 3584 1784 3584 
Q 2172 3584 2450 3431 
Q 2728 3278 2906 2969 
L 2906 3500 
L 3481 3500 
L 3481 434 
z
" transform="scale(0.015625)"/>
      <path id="DejaVuSans-6f" d="M 1959 3097 
Q 1497 3097 1228 2736 
Q 959 2375 959 1747 
Q 959 1119 1226 758 
Q 1494 397 1959 397 
Q 2419 397 2687 759 
Q 2956 1122 2956 1747 
Q 2956 2369 2687 2733 
Q 2419 3097 1959 3097 
z
M 1959 3584 
Q 2709 3584 3137 3096 
Q 3566 2609 3566 1747 
Q 3566 888 3137 398 
Q 2709 -91 1959 -91 
Q 1206 -91 779 398 
Q 353 888 353 1747 
Q 353 2609 779 3096 
Q 1206 3584 1959 3584 
z
" transform="scale(0.015625)"/>
      <path id="DejaVuSans-77" d="M 269 3500 
L 844 3500 
L 1563 769 
L 2278 3500 
L 2956 3500 
L 3675 769 
L 4391 3500 
L 4966 3500 
L 4050 0 
L 3372 0 
L 2619 2869 
L 1863 0 
L 1184 0 
L 269 3500 
z
" transform="scale(0.015625)"/>
      <path id="DejaVuSans-68" d="M 3513 2113 
L 3513 0 
L 2938 0 
L 2938 2094 
Q 2938 2591 2744 2837 
Q 2550 3084 2163 3084 
Q 1697 3084 1428 2787 
Q 1159 2491 1159 1978 
L 1159 0 
L 581 0 
L 581 4863 
L 1159 4863 
L 1159 2956 
Q 1366 3272 1645 3428 
Q 1925 3584 2291 3584 
Q 2894 3584 3203 3211 
Q 3513 2838 3513 2113 
z
" transform="scale(0.015625)"/>
      <path id="DejaVuSans-64" d="M 2906 2969 
L 2906 4863 
L 3481 4863 
L 3481 0 
L 2906 0 
L 2906 525 
Q 2725 213 2448 61 
Q 2172 -91 1784 -91 
Q 1150 -91 751 415 
Q 353 922 353 1747 
Q 353 2572 751 3078 
Q 1150 3584 1784 3584 
Q 2172 3584 2448 3432 
Q 2725 3281 2906 2969 
z
M 947 1747 
Q 947 1113 1208 752 
Q 1469 391 1925 391 
Q 2381 391 2643 752 
Q 2906 1113 2906 1747 
Q 2906 2381 2643 2742 
Q 2381 3103 1925 3103 
Q 1469 3103 1208 2742 
Q 947 2381 947 1747 
z
" transform="scale(0.015625)"/>
     </defs>
     <use xlink:href="#DejaVuSans-53"/>
     <use xlink:href="#DejaVuSans-74" x="63.476562"/>
     <use xlink:href="#DejaVuSans-72" x="102.685547"/>
     <use xlink:href="#DejaVuSans-75" x="143.798828"/>
     <use xlink:href="#DejaVuSans-63" x="207.177734"/>
     <use xlink:href="#DejaVuSans-74" x="262.158203"/>
     <use xlink:href="#DejaVuSans-75" x="301.367188"/>
     <use xlink:href="#DejaVuSans-72" x="364.746094"/>
     <use xlink:href="#DejaVuSans-61" x="405.859375"/>
     <use xlink:href="#DejaVuSans-6c" x="467.138672"/>
     <use xlink:href="#DejaVuSans-20" x="494.921875"/>
     <use xlink:href="#DejaVuSans-62" x="526.708984"/>
     <use xlink:href="#DejaVuSans-72" x="590.185547"/>
     <use xlink:href="#DejaVuSans-65" x="629.048828"/>
     <use xlink:href="#DejaVuSans-61" x="690.572266"/>
     <use xlink:href="#DejaVuSans-6b" x="751.851562"/>
     <use xlink:href="#DejaVuSans-73" x="809.761719"/>
     <use xlink:href="#DejaVuSans-20" x="861.861328"/>
     <use xlink:href="#DejaVuSans-28" x="893.648438"/>
     <use xlink:href="#DejaVuSans-70" x="932.662109"/>
     <use xlink:href="#DejaVuSans-65" x="996.138672"/>
     <use xlink:href="#DejaVuSans-72" x="1057.662109"/>
     <use xlink:href="#DejaVuSans-20" x="1098.775391"/>
     <use xlink:href="#DejaVuSans-72" x="1130.5625"/>
     <use xlink:href="#DejaVuSans-75" x="1171.675781"/>
     <use xlink:href="#DejaVuSans-70" x="1235.054688"/>
     <use xlink:href="#DejaVuSans-74" x="1298.53125"/>
     <use xlink:href="#DejaVuSans-75" x="1337.740234"/>
     <use xlink:href="#DejaVuSans-72" x="1401.119141"/>
     <use xlink:href="#DejaVuSans-65" x="1439.982422"/>
     <use xlink:href="#DejaVuSans-73" x="1501.505859"/>
     <use xlink:href="#DejaVuSans-29" x="1553.605469"/>
     <use xlink:href="#DejaVuSans-20" x="1592.619141"/>
     <use xlink:href="#DejaVuSans-69" x="1624.40625"/>
     <use xlink:href="#DejaVuSans-6e" x="1652.189453"/>
     <use xlink:href="#DejaVuSans-20" x="1715.568359"/>
     <use xlink:href="#DejaVuSans-55" x="1747.355469"/>
     <use xlink:href="#DejaVuSans-4b" x="1820.548828"/>
     <use xlink:href="#DejaVuSans-20" x="1886.125"/>
     <use xlink:href="#DejaVuSans-47" x="1917.912109"/>
     <use xlink:href="#DejaVuSans-44" x="1995.402344"/>
     <use xlink:href="#DejaVuSans-50" x="2072.404297"/>
     <use xlink:href="#DejaVuSans-20" x="2132.707031"/>
     <use xlink:href="#DejaVuSans-67" x="2164.494141"/>
     <use xlink:href="#DejaVuSans-72" x="2227.970703"/>
     <use xlink:href="#DejaVuSans-6f" x="2266.833984"/>
     <use xlink:href="#DejaVuSans-77" x="2328.015625"/>
     <use xlink:href="#DejaVuSans-74" x="2409.802734"/>
     <use xlink:href="#DejaVuSans-68" x="2449.011719"/>
     <use xlink:href="#DejaVuSans-20" x="2512.390625"/>
     <use xlink:href="#DejaVuSans-64" x="2544.177734"/>
     <use xlink:href="#DejaVuSans-61" x="2607.654297"/>
     <use xlink:href="#DejaVuSans-74" x="2668.933594"/>
     <use xlink:href="#DejaVuSans-61" x="2708.142578"/>
    </g>
   </g>
  </g>
 </g>
 <defs>
  <clipPath id="pcd078c9ff3">
   <rect x="35.304688" y="22.318125" width="670.275" height="321.4"/>
  </clipPath>
 </defs>
</svg>
